<svg width="19" height="19" viewBox="0 0 19 19" fill="none" xmlns="http://www.w3.org/2000/svg">
<g id="Group" opacity="0.9">
<path id="Vector" d="M9.41775 8.02931H11.823C12.1082 8.02931 12.3384 7.7991 12.3384 7.51391V5.10867C12.3384 4.82348 12.1082 4.59326 11.823 4.59326H9.41775C9.13256 4.59326 8.90234 4.82348 8.90234 5.10867V7.51391C8.90234 7.7991 9.13256 8.02931 9.41775 8.02931ZM9.93316 5.62236H11.3076V6.99678H9.93316V5.62236Z" fill="white" stroke="white" stroke-width="0.4"/>
<path id="Vector_2" d="M18.0787 1.14355H8.73088C7.11937 1.14355 5.81024 2.45441 5.81024 4.0642V5.96434H3.90838C2.30375 5.96434 0.998047 7.27004 0.998047 8.87467V15.8258C0.998047 17.4304 2.30375 18.7361 3.90838 18.7361H13.9537C15.1924 18.7361 16.3589 18.2534 17.2351 17.3772C18.1113 16.501 18.5941 15.3362 18.5941 14.0958V1.65896C18.5941 1.37377 18.3639 1.14355 18.0787 1.14355ZM3.90838 6.99515H5.80852V10.091H2.02886V8.87467C2.02886 7.8387 2.87241 6.99515 3.90838 6.99515ZM3.91869 17.7053H3.90838C2.87241 17.7053 2.02886 16.8618 2.02886 15.8258V11.1219H5.81024V15.8258C5.81024 16.8618 4.96669 17.7053 3.93072 17.7053H3.91869ZM17.5633 14.0975C17.5633 16.0869 15.9449 17.707 13.9537 17.707H6.15041C6.57991 17.2002 6.84105 16.5439 6.84105 15.8275V4.0642C6.84105 3.02136 7.68976 2.17437 8.73088 2.17437H17.5633V14.0975Z" fill="white" stroke="white" stroke-width="0.4"/>
<path id="Vector_3" d="M9.41775 11.1216H14.9756C15.2608 11.1216 15.491 10.8914 15.491 10.6062C15.491 10.321 15.2608 10.0908 14.9756 10.0908H9.41775C9.13256 10.0908 8.90234 10.321 8.90234 10.6062C8.90234 10.8914 9.13256 11.1216 9.41775 11.1216ZM9.41775 14.2158H14.9756C15.2608 14.2158 15.491 13.9856 15.491 13.7004C15.491 13.4152 15.2608 13.185 14.9756 13.185H9.41775C9.13256 13.185 8.90234 13.4152 8.90234 13.7004C8.90234 13.9856 9.13256 14.2158 9.41775 14.2158Z" fill="white" stroke="white" stroke-width="0.4"/>
</g>
</svg>
