<svg width="51" height="32" viewBox="0 0 51 32" fill="none" xmlns="http://www.w3.org/2000/svg">
<g id="Group 4">
<path id="Vector" d="M39.6211 31.0247C38.9444 31.0247 38.259 30.8841 37.5998 30.5941L23.5387 24.3276C21.0253 23.2114 19.8916 20.2496 21.0077 17.736L27.2737 3.67373C28.3898 1.16011 31.3514 0.0263404 33.8649 1.14253L47.926 7.40901C50.4394 8.5252 51.5732 11.4871 50.4571 14.0007L44.1911 28.0629C43.3562 29.9261 41.5282 31.0247 39.6211 31.0247ZM38.7687 27.9574C39.8321 28.432 41.08 27.9486 41.5545 26.894L47.8206 12.8317C48.2952 11.7683 47.8117 10.5203 46.7572 10.0457L32.6872 3.7792C31.6239 3.3046 30.376 3.78798 29.9014 4.84265L23.6354 18.9049C23.1608 19.9683 23.6442 21.2164 24.6988 21.691L38.7687 27.9574Z" fill="#777777"/>
<path id="Vector_2" d="M26.069 13.4647L23.995 18.1052C23.9686 18.1579 23.9423 18.2019 23.9159 18.2458L24.7244 23.2379C24.909 24.3892 24.1268 25.4703 22.9843 25.6548L7.78076 28.1157C7.22711 28.2036 6.66466 28.0718 6.20767 27.7466C5.75069 27.4214 5.45189 26.9292 5.36401 26.3755L2.90331 11.1708C2.81543 10.6171 2.94725 10.0546 3.27241 9.59754C3.59758 9.14052 4.08972 8.84169 4.64337 8.75381L19.847 6.29292C19.9612 6.27534 20.0755 6.26655 20.1809 6.26655C21.1916 6.26655 22.0967 7.00482 22.2637 8.04191L23.081 13.0691L25.2253 8.26163L25.1111 7.58488C24.6717 4.86912 22.1055 3.01466 19.39 3.45411L4.18639 5.915C2.87695 6.11714 1.7169 6.82904 0.943542 7.91007C0.161392 8.99111 -0.146195 10.3094 0.0647221 11.6278L2.52542 26.8325C2.73633 28.1509 3.44818 29.3022 4.52913 30.0844C5.38158 30.7084 6.39223 31.0248 7.43802 31.0248C7.70167 31.0248 7.9741 31.0073 8.24654 30.9633L23.4501 28.5024C26.1657 28.063 28.02 25.4966 27.5806 22.7809L26.069 13.4647Z" fill="#777777"/>
</g>
</svg>
