<svg width="25" height="25" viewBox="0 0 25 25" fill="none" xmlns="http://www.w3.org/2000/svg">
<g id="Frame">
<path id="Vector" d="M16.3844 12.2008C16.1998 12.3854 15.9494 12.4891 15.6883 12.4891C15.4273 12.4891 15.1769 12.3854 14.9923 12.2008L13.241 10.4491V16.5616C13.241 16.8226 13.1373 17.073 12.9527 17.2576C12.7681 17.4422 12.5177 17.5459 12.2566 17.5459C11.9956 17.5459 11.7452 17.4422 11.5606 17.2576C11.376 17.073 11.2723 16.8226 11.2723 16.5616V10.4491L9.52054 12.2008C9.42918 12.2925 9.32064 12.3652 9.20114 12.4149C9.08164 12.4645 8.95352 12.4902 8.82411 12.4903C8.69469 12.4904 8.56653 12.465 8.44695 12.4155C8.32736 12.366 8.21871 12.2935 8.1272 12.2019C8.03569 12.1104 7.96312 12.0018 7.91365 11.8822C7.86417 11.7626 7.83876 11.6344 7.83887 11.505C7.83897 11.3756 7.8646 11.2475 7.91427 11.128C7.96394 11.0085 8.03669 10.9 8.12835 10.8086L11.5605 7.37642C11.7452 7.19183 11.9956 7.08813 12.2566 7.08813C12.5177 7.08813 12.7681 7.19183 12.9527 7.37642L16.3844 10.8086C16.569 10.9932 16.6727 11.2436 16.6727 11.5047C16.6727 11.7658 16.569 12.0162 16.3844 12.2008Z" fill="#009BD6"/>
<path id="Vector_2" d="M20.9959 19.1012C20.9178 19.2044 20.8201 19.2911 20.7084 19.3565C20.5967 19.4218 20.4732 19.4645 20.345 19.4821C20.2167 19.4997 20.0863 19.4918 19.9611 19.4589C19.836 19.426 19.7185 19.3688 19.6155 19.2905C19.5125 19.2121 19.4259 19.1142 19.3608 19.0024C19.2956 18.8906 19.2532 18.767 19.2358 18.6387C19.2185 18.5105 19.2266 18.3801 19.2598 18.255C19.2929 18.1298 19.3504 18.0125 19.4289 17.9096C20.7423 16.1766 21.3839 14.0268 21.2354 11.8574C21.0868 9.68803 20.1581 7.64574 18.6208 6.10791C15.1122 2.59838 9.40235 2.59791 5.89282 6.1065C4.35532 7.64403 3.42626 9.68607 3.27728 11.8553C3.1283 14.0246 3.76948 16.1745 5.08235 17.9078C5.16088 18.0106 5.21836 18.128 5.2515 18.2531C5.28463 18.3782 5.29276 18.5086 5.27543 18.6369C5.2581 18.7651 5.21565 18.8887 5.1505 19.0005C5.08536 19.1124 4.9988 19.2102 4.89578 19.2886C4.79275 19.3669 4.67529 19.4242 4.55012 19.4571C4.42495 19.4899 4.29452 19.4978 4.16629 19.4802C4.03807 19.4627 3.91457 19.42 3.80287 19.3546C3.69117 19.2892 3.59345 19.2025 3.51532 19.0993C2.28167 17.4721 1.5267 15.5329 1.33537 13.4999C1.14405 11.4669 1.52397 9.42086 2.43237 7.59208C3.34077 5.76329 4.74159 4.22436 6.47715 3.1485C8.21272 2.07264 10.2141 1.50256 12.2561 1.50244H12.2575C14.2996 1.50279 16.301 2.07313 18.0365 3.14927C19.772 4.22541 21.1727 5.76461 22.0809 7.59363C22.989 9.42264 23.3687 11.4688 23.177 13.5019C22.9853 15.5349 22.2299 17.4741 20.9959 19.1012Z" fill="#009BD6"/>
<path id="Vector_3" d="M23.1787 22.3501C23.1787 22.6112 23.0749 22.8615 22.8903 23.0461C22.7057 23.2307 22.4554 23.3344 22.1943 23.3345H2.31934C2.05826 23.3345 1.80788 23.2308 1.62328 23.0462C1.43867 22.8615 1.33496 22.6112 1.33496 22.3501C1.33496 22.089 1.43867 21.8386 1.62328 21.654C1.80788 21.4694 2.05826 21.3657 2.31934 21.3657H22.1943C22.4554 21.3658 22.7057 21.4695 22.8903 21.6541C23.0749 21.8387 23.1787 22.089 23.1787 22.3501Z" fill="#009BD6"/>
</g>
</svg>
