<svg width="24" height="24" viewBox="0 0 24 24" fill="none" xmlns="http://www.w3.org/2000/svg">
<g id="lock_FILL0_wght400_GRAD0_opsz48 1">
<path id="Vector" d="M5.5 22C5.0875 22 4.73438 21.8531 4.44063 21.5594C4.14687 21.2656 4 20.9125 4 20.5V9.65C4 9.2375 4.14687 8.88438 4.44063 8.59063C4.73438 8.29688 5.0875 8.15 5.5 8.15H7.25V5.75C7.25 4.43583 7.71338 3.31563 8.64015 2.38938C9.56692 1.46313 10.6878 1 12.0027 1C13.3176 1 14.4375 1.46313 15.3625 2.38938C16.2875 3.31563 16.75 4.43583 16.75 5.75V8.15H18.5C18.9125 8.15 19.2656 8.29688 19.5594 8.59063C19.8531 8.88438 20 9.2375 20 9.65V20.5C20 20.9125 19.8531 21.2656 19.5594 21.5594C19.2656 21.8531 18.9125 22 18.5 22H5.5ZM5.5 20.5H18.5V9.65H5.5V20.5ZM8.75 8.15H15.25V5.75C15.25 4.84722 14.9343 4.07986 14.3029 3.44792C13.6716 2.81597 12.9049 2.5 12.003 2.5C11.101 2.5 10.3333 2.81597 9.7 3.44792C9.06667 4.07986 8.75 4.84722 8.75 5.75V8.15Z" fill="#333333"/>
<path id="Vector_2" d="M13.3627 16.4491C12.9877 16.8163 12.5349 16.9999 12.0044 16.9999C11.4739 16.9999 11.0197 16.8166 10.6419 16.4499C10.2641 16.0832 10.0752 15.6457 10.0752 15.1374C10.0752 14.6291 10.2627 14.1707 10.6377 13.7624C11.0127 13.3541 11.4655 13.1499 11.996 13.1499C12.5265 13.1499 12.9807 13.3541 13.3585 13.7624C13.7363 14.1707 13.9252 14.6249 13.9252 15.1249C13.9252 15.6405 13.7377 16.0819 13.3627 16.4491Z" fill="#009BD6"/>
</g>
</svg>
