<svg width="16" height="16" viewBox="0 0 16 16" fill="none" xmlns="http://www.w3.org/2000/svg">
<g id="print.svg" clip-path="url(#clip0_234_3370)">
<path id="Vector" d="M12.8594 4.28711V0.537109H3.48438V4.28711H0.671875V11.7871H3.48438V15.5371H12.8594V11.7871H15.6719V4.28711H12.8594ZM4.42188 1.47461H11.9219V4.28711H4.42188V1.47461ZM11.9219 14.5996H4.42188V9.91504H11.9219V14.5996ZM14.7344 10.8496H12.8594V8.97461H3.48438V10.8496H1.60938V5.22461H14.7344V10.8496Z" fill="black"/>
<g id="Group">
<path id="Vector_2" d="M11.834 6.11816H13.9258V6.81543H11.834V6.11816ZM5.55566 10.6533H10.4395V11.3506H5.55566V10.6533ZM5.55566 12.7451H8.34766V13.4424H5.55566V12.7451Z" fill="black"/>
</g>
</g>
<defs>
<clipPath id="clip0_234_3370">
<rect width="15" height="15" fill="black" transform="translate(0.671875 0.537109)"/>
</clipPath>
</defs>
</svg>
