<svg width="21" height="21" viewBox="0 0 21 21" fill="none" xmlns="http://www.w3.org/2000/svg">
<g id="workspace_premium_FILL0_wght400_GRAD0_opsz48 1">
<path id="Vector" d="M9.23125 11.375L10.5 10.4344L11.7469 11.375C11.8781 11.4771 12.0094 11.4844 12.1406 11.3969C12.2719 11.3094 12.3156 11.1854 12.2719 11.025L11.7906 9.47187L13.125 8.44375C13.2417 8.34166 13.2745 8.21771 13.2234 8.07187C13.1724 7.92604 13.0667 7.85312 12.9063 7.85312H11.3094L10.8063 6.23437C10.7625 6.07396 10.6641 5.99375 10.5109 5.99375C10.3578 5.99375 10.2521 6.07396 10.1938 6.23437L9.66875 7.85312H8.09375C7.93333 7.85312 7.8276 7.92604 7.77656 8.07187C7.72552 8.21771 7.75833 8.34166 7.875 8.44375L9.20938 9.47187L8.72813 11.025C8.68438 11.1854 8.72813 11.3094 8.85938 11.3969C8.99063 11.4844 9.11458 11.4771 9.23125 11.375ZM6.2125 19.8406C6.00833 19.9135 5.81146 19.8844 5.62188 19.7531C5.43229 19.6219 5.3375 19.4396 5.3375 19.2062V13.475C4.68125 12.7896 4.21094 12.0385 3.92656 11.2219C3.64219 10.4052 3.5 9.58125 3.5 8.75C3.5 6.76667 4.17083 5.10417 5.5125 3.7625C6.85417 2.42083 8.51667 1.75 10.5 1.75C12.4833 1.75 14.1458 2.42083 15.4875 3.7625C16.8292 5.10417 17.5 6.76667 17.5 8.75C17.5 9.58125 17.3578 10.4052 17.0734 11.2219C16.7891 12.0385 16.3188 12.7896 15.6625 13.475V19.2062C15.6625 19.4396 15.5677 19.6219 15.3781 19.7531C15.1885 19.8844 14.9917 19.9135 14.7875 19.8406L10.5 18.3969L6.2125 19.8406ZM10.5 14.4375C12.0896 14.4375 13.4349 13.887 14.5359 12.7859C15.637 11.6849 16.1875 10.3396 16.1875 8.75C16.1875 7.16042 15.637 5.8151 14.5359 4.71406C13.4349 3.61302 12.0896 3.0625 10.5 3.0625C8.91042 3.0625 7.5651 3.61302 6.46406 4.71406C5.36302 5.8151 4.8125 7.16042 4.8125 8.75C4.8125 10.3396 5.36302 11.6849 6.46406 12.7859C7.5651 13.887 8.91042 14.4375 10.5 14.4375ZM6.65 18.2875L10.5 17.0844L14.35 18.2875V14.5469C13.7667 14.9698 13.1396 15.276 12.4688 15.4656C11.7979 15.6552 11.1417 15.75 10.5 15.75C9.85833 15.75 9.20208 15.6552 8.53125 15.4656C7.86042 15.276 7.23333 14.9698 6.65 14.5469V18.2875Z" fill="white"/>
</g>
</svg>
