<svg width="34" height="34" viewBox="0 0 34 34" fill="none" xmlns="http://www.w3.org/2000/svg">
<g id="key_FILL0_wght400_GRAD0_opsz48" clip-path="url(#clip0_234_72507)">
<path id="Vector" d="M8.99879 16.3932C7.99969 15.0592 7.61735 13.5756 7.85178 11.9424C8.08621 10.3092 8.87042 8.9931 10.2044 7.994C11.5384 6.99489 13.022 6.61255 14.6552 6.84698C16.2884 7.08141 17.6045 7.86563 18.6036 9.19963C19.323 10.1601 19.7256 11.1704 19.8116 12.2304C19.8975 13.2905 19.6352 14.372 19.0244 15.4749L24.3596 22.5985L23.792 26.5531L18.2277 25.5044L18.1895 22.7844L15.59 21.9826L15.6667 19.5827L14.9023 18.5622C13.8522 18.8281 12.803 18.7966 11.7549 18.4675C10.7068 18.1385 9.78809 17.4471 8.99879 16.3932ZM10.1994 15.494C10.7789 16.2677 11.5702 16.7891 12.5733 17.0581C13.5765 17.3271 14.5482 17.2552 15.4885 16.8425L17.197 19.1237L17.1058 20.8786L19.6852 21.6954L19.6735 24.2653L22.5282 24.7823L22.7844 22.9974L17.2094 15.5537C17.8365 14.8341 18.1804 13.9518 18.2411 12.9069C18.3018 11.8619 18.0225 10.9259 17.403 10.0988C16.6537 9.09832 15.6666 8.51016 14.4417 8.33434C13.2168 8.15852 12.1041 8.44527 11.1036 9.1946C10.1031 9.94393 9.51496 10.931 9.33913 12.1559C9.16331 13.3808 9.45007 14.4935 10.1994 15.494Z" fill="#333333"/>
<path id="Vector_2" d="M12.1211 12.5554C12.0542 13.022 12.1605 13.4421 12.4403 13.8156C12.72 14.1891 13.0932 14.4094 13.5599 14.4764C14.0265 14.5433 14.4466 14.437 14.8201 14.1572C15.1936 13.8775 15.4138 13.5043 15.4808 13.0376C15.5478 12.571 15.4414 12.151 15.1617 11.7774C14.8819 11.4039 14.5087 11.1837 14.0421 11.1167C13.5755 11.0497 13.1554 11.1561 12.7819 11.4358C12.4084 11.7156 12.1881 12.0888 12.1211 12.5554Z" fill="#009BD6"/>
</g>
<defs>
<clipPath id="clip0_234_72507">
<rect width="24" height="24" fill="white" transform="translate(19.21) rotate(53.1685)"/>
</clipPath>
</defs>
</svg>
