<svg width="17" height="16" viewBox="0 0 17 16" fill="none" xmlns="http://www.w3.org/2000/svg">
<g id="visibility_off_FILL0_wght400_GRAD0_opsz24 1">
<path id="Vector" d="M11.4007 8.8667L10.434 7.90003C10.534 7.37781 10.384 6.88892 9.98398 6.43337C9.58398 5.97781 9.06732 5.80003 8.43398 5.90003L7.46732 4.93337C7.65621 4.84448 7.84787 4.77781 8.04232 4.73337C8.23676 4.68892 8.4451 4.6667 8.66732 4.6667C9.50065 4.6667 10.209 4.95837 10.7923 5.5417C11.3757 6.12503 11.6673 6.83337 11.6673 7.6667C11.6673 7.88892 11.6451 8.09726 11.6007 8.2917C11.5562 8.48614 11.4895 8.67781 11.4007 8.8667ZM13.534 10.9667L12.5673 10.0334C12.9895 9.71114 13.3645 9.35837 13.6923 8.97503C14.0201 8.5917 14.3007 8.15559 14.534 7.6667C13.9784 6.54448 13.1812 5.65281 12.1423 4.9917C11.1034 4.33059 9.9451 4.00003 8.66732 4.00003C8.3451 4.00003 8.02843 4.02225 7.71732 4.0667C7.40621 4.11114 7.10065 4.17781 6.80065 4.2667L5.76732 3.23337C6.22287 3.04448 6.68954 2.90281 7.16732 2.80837C7.6451 2.71392 8.1451 2.6667 8.66732 2.6667C10.3451 2.6667 11.8395 3.13059 13.1507 4.05837C14.4618 4.98614 15.4118 6.18892 16.0007 7.6667C15.7451 8.32226 15.409 8.93059 14.9923 9.4917C14.5757 10.0528 14.0895 10.5445 13.534 10.9667ZM13.8673 15.0667L11.0673 12.3C10.6784 12.4223 10.2868 12.5139 9.89232 12.575C9.49787 12.6361 9.08954 12.6667 8.66732 12.6667C6.98954 12.6667 5.4951 12.2028 4.18398 11.275C2.87287 10.3473 1.92287 9.14448 1.33398 7.6667C1.56732 7.07781 1.86176 6.53059 2.21732 6.02503C2.57287 5.51948 2.97843 5.0667 3.43398 4.6667L1.60065 2.80003L2.53398 1.8667L14.8007 14.1334L13.8673 15.0667ZM4.36732 5.60003C4.0451 5.88892 3.75065 6.20559 3.48398 6.55003C3.21732 6.89448 2.98954 7.2667 2.80065 7.6667C3.35621 8.78892 4.15343 9.68059 5.19232 10.3417C6.23121 11.0028 7.38954 11.3334 8.66732 11.3334C8.88954 11.3334 9.10621 11.3195 9.31732 11.2917C9.52843 11.2639 9.7451 11.2334 9.96732 11.2L9.36732 10.5667C9.2451 10.6 9.12843 10.625 9.01732 10.6417C8.90621 10.6584 8.78954 10.6667 8.66732 10.6667C7.83398 10.6667 7.12565 10.375 6.54232 9.7917C5.95898 9.20837 5.66732 8.50003 5.66732 7.6667C5.66732 7.54448 5.67565 7.42781 5.69232 7.3167C5.70898 7.20559 5.73398 7.08892 5.76732 6.9667L4.36732 5.60003Z" fill="#BDBDBD"/>
</g>
</svg>
