<svg width="16" height="16" viewBox="0 0 16 16" fill="none" xmlns="http://www.w3.org/2000/svg">
<g id="visibility_FILL0_wght400_GRAD0_opsz24 1">
<path id="Vector" d="M8.00033 10.6667C8.83366 10.6667 9.54199 10.3751 10.1253 9.79175C10.7087 9.20842 11.0003 8.50008 11.0003 7.66675C11.0003 6.83342 10.7087 6.12508 10.1253 5.54175C9.54199 4.95841 8.83366 4.66675 8.00033 4.66675C7.16699 4.66675 6.45866 4.95841 5.87533 5.54175C5.29199 6.12508 5.00033 6.83342 5.00033 7.66675C5.00033 8.50008 5.29199 9.20842 5.87533 9.79175C6.45866 10.3751 7.16699 10.6667 8.00033 10.6667ZM8.00033 9.46675C7.50033 9.46675 7.07533 9.29175 6.72533 8.94175C6.37533 8.59175 6.20033 8.16675 6.20033 7.66675C6.20033 7.16675 6.37533 6.74175 6.72533 6.39175C7.07533 6.04175 7.50033 5.86675 8.00033 5.86675C8.50033 5.86675 8.92533 6.04175 9.27533 6.39175C9.62533 6.74175 9.80033 7.16675 9.80033 7.66675C9.80033 8.16675 9.62533 8.59175 9.27533 8.94175C8.92533 9.29175 8.50033 9.46675 8.00033 9.46675ZM8.00033 12.6667C6.3781 12.6667 4.90033 12.214 3.56699 11.3084C2.23366 10.4029 1.26699 9.18897 0.666992 7.66675C1.26699 6.14453 2.23366 4.93064 3.56699 4.02508C4.90033 3.11953 6.3781 2.66675 8.00033 2.66675C9.62255 2.66675 11.1003 3.11953 12.4337 4.02508C13.767 4.93064 14.7337 6.14453 15.3337 7.66675C14.7337 9.18897 13.767 10.4029 12.4337 11.3084C11.1003 12.214 9.62255 12.6667 8.00033 12.6667ZM8.00033 11.3334C9.25588 11.3334 10.4087 11.0029 11.4587 10.3417C12.5087 9.68064 13.3114 8.78897 13.867 7.66675C13.3114 6.54453 12.5087 5.65286 11.4587 4.99175C10.4087 4.33064 9.25588 4.00008 8.00033 4.00008C6.74477 4.00008 5.59199 4.33064 4.54199 4.99175C3.49199 5.65286 2.68921 6.54453 2.13366 7.66675C2.68921 8.78897 3.49199 9.68064 4.54199 10.3417C5.59199 11.0029 6.74477 11.3334 8.00033 11.3334Z" fill="#009BD6"/>
</g>
</svg>
