<svg width="25" height="25" viewBox="0 0 25 25" fill="none" xmlns="http://www.w3.org/2000/svg">
<path d="M22.5682 13.2116C22.5682 12.3483 22.4967 11.7183 22.342 11.0649H12.2825V14.9616H18.1872C18.0682 15.9299 17.4254 17.3883 15.9968 18.3682L15.9767 18.4987L19.1574 20.9134L19.3777 20.9349C21.4015 19.1033 22.5682 16.4082 22.5682 13.2116Z" fill="#4285F4"/>
<path d="M12.2818 23.4786C15.1746 23.4786 17.6031 22.5452 19.377 20.9352L15.996 18.3685C15.0913 18.9868 13.877 19.4185 12.2818 19.4185C9.4485 19.4185 7.04377 17.5869 6.18655 15.0552L6.0609 15.0656L2.75364 17.574L2.71039 17.6918C4.47227 21.1218 8.09131 23.4786 12.2818 23.4786Z" fill="#34A853"/>
<path d="M6.18717 15.0552C5.96099 14.4019 5.83009 13.7019 5.83009 12.9786C5.83009 12.2552 5.96099 11.5552 6.17527 10.9019L6.16928 10.7627L2.82057 8.21411L2.711 8.26518C1.98485 9.68853 1.56818 11.2869 1.56818 12.9786C1.56818 14.6702 1.98485 16.2685 2.711 17.6919L6.18717 15.0552Z" fill="#FBBC05"/>
<path d="M12.2819 6.53849C14.2937 6.53849 15.6509 7.39015 16.4247 8.10187L19.4485 5.20852C17.5914 3.51685 15.1747 2.47852 12.2819 2.47852C8.09134 2.47852 4.47228 4.83516 2.71039 8.26514L6.17467 10.9018C7.04379 8.37018 9.44854 6.53849 12.2819 6.53849Z" fill="#EB4335"/>
</svg>
