<svg width="25" height="25" viewBox="0 0 25 25" fill="none" xmlns="http://www.w3.org/2000/svg">
<path d="M22.5684 13.2116C22.5684 12.3483 22.4969 11.7183 22.3422 11.0649H12.2827V14.9616H18.1874C18.0684 15.9299 17.4256 17.3883 15.997 18.3682L15.9769 18.4987L19.1576 20.9134L19.3779 20.9349C21.4017 19.1033 22.5684 16.4082 22.5684 13.2116Z" fill="#4285F4"/>
<path d="M12.2821 23.4786C15.1749 23.4786 17.6034 22.5452 19.3773 20.9352L15.9964 18.3685C15.0916 18.9868 13.8773 19.4185 12.2821 19.4185C9.44881 19.4185 7.04407 17.5869 6.18685 15.0552L6.0612 15.0656L2.75394 17.574L2.71069 17.6918C4.47257 21.1218 8.09161 23.4786 12.2821 23.4786Z" fill="#34A853"/>
<path d="M6.18748 15.0552C5.96129 14.4019 5.83039 13.7019 5.83039 12.9786C5.83039 12.2552 5.96129 11.5552 6.17558 10.9019L6.16959 10.7627L2.82087 8.21411L2.71131 8.26518C1.98515 9.68853 1.56848 11.2869 1.56848 12.9786C1.56848 14.6702 1.98515 16.2685 2.71131 17.6919L6.18748 15.0552Z" fill="#FBBC05"/>
<path d="M12.2822 6.53849C14.294 6.53849 15.6512 7.39015 16.425 8.10187L19.4488 5.20852C17.5917 3.51685 15.175 2.47852 12.2822 2.47852C8.09165 2.47852 4.47258 4.83516 2.71069 8.26514L6.17497 10.9018C7.0441 8.37018 9.44885 6.53849 12.2822 6.53849Z" fill="#EB4335"/>
</svg>
