<svg width="81" height="81" viewBox="0 0 81 81" fill="none" xmlns="http://www.w3.org/2000/svg">
<g id="history_FILL0_wght400_GRAD0_opsz48 (1) 1">
<path id="Vector" d="M40.5553 70.9424C32.6664 70.9424 25.9025 68.2896 20.2637 62.9841C14.6248 57.6785 11.4998 51.1368 10.8887 43.3591C10.8331 42.6924 11.0414 42.1091 11.5137 41.6091C11.9859 41.1091 12.5831 40.8591 13.3053 40.8591C13.972 40.8591 14.5414 41.0952 15.0137 41.5674C15.4859 42.0396 15.7775 42.6368 15.8887 43.3591C16.4998 49.7479 19.1387 55.1091 23.8053 59.4424C28.472 63.7757 34.0553 65.9424 40.5553 65.9424C47.6109 65.9424 53.5831 63.4702 58.472 58.5257C63.3609 53.5813 65.8053 47.5813 65.8053 40.5257C65.8053 33.6368 63.3331 27.8174 58.3887 23.0674C53.4442 18.3174 47.4998 15.9424 40.5553 15.9424C36.7775 15.9424 33.2359 16.8035 29.9303 18.5257C26.6248 20.2479 23.7498 22.5257 21.3053 25.359H27.5553C28.2775 25.359 28.8748 25.5952 29.347 26.0674C29.8192 26.5396 30.0553 27.1368 30.0553 27.8591C30.0553 28.5813 29.8192 29.1785 29.347 29.6507C28.8748 30.1229 28.2775 30.3591 27.5553 30.3591H15.1387C14.4164 30.3591 13.8192 30.1229 13.347 29.6507C12.8748 29.1785 12.6387 28.5813 12.6387 27.8591V15.5257C12.6387 14.8035 12.8748 14.2063 13.347 13.734C13.8192 13.2618 14.4164 13.0257 15.1387 13.0257C15.8609 13.0257 16.4581 13.2618 16.9303 13.734C17.4025 14.2063 17.6387 14.8035 17.6387 15.5257V21.859C20.5275 18.4702 23.9581 15.8035 27.9303 13.859C31.9025 11.9146 36.1109 10.9424 40.5553 10.9424C44.722 10.9424 48.6387 11.7202 52.3053 13.2757C55.972 14.8313 59.1803 16.9563 61.9303 19.6507C64.6803 22.3452 66.847 25.4979 68.4303 29.1091C70.0137 32.7202 70.8053 36.6091 70.8053 40.7757C70.8053 44.9424 70.0137 48.8591 68.4303 52.5257C66.847 56.1924 64.6803 59.3868 61.9303 62.1091C59.1803 64.8313 55.972 66.9841 52.3053 68.5674C48.6387 70.1507 44.722 70.9424 40.5553 70.9424ZM43.3887 39.7757L52.972 49.1924C53.472 49.6924 53.722 50.2896 53.722 50.9841C53.722 51.6785 53.472 52.2757 52.972 52.7757C52.472 53.2757 51.8887 53.5257 51.222 53.5257C50.5553 53.5257 49.972 53.2757 49.472 52.7757L39.1387 42.6091C38.8609 42.3313 38.6664 42.0396 38.5553 41.7341C38.4442 41.4285 38.3887 41.1091 38.3887 40.7757V26.5257C38.3887 25.8035 38.6248 25.2063 39.097 24.734C39.5692 24.2618 40.1664 24.0257 40.8887 24.0257C41.6109 24.0257 42.2081 24.2618 42.6803 24.734C43.1525 25.2063 43.3887 25.8035 43.3887 26.5257V39.7757Z" fill="#B5B5B5"/>
</g>
</svg>
