<svg width="25" height="25" viewBox="0 0 25 25" fill="none" xmlns="http://www.w3.org/2000/svg">
<rect x="2.06689" y="2.47852" width="21" height="21" rx="6" fill="url(#paint0_radial_31_39463)"/>
<rect x="2.06689" y="2.47852" width="21" height="21" rx="6" fill="url(#paint1_radial_31_39463)"/>
<rect x="2.06689" y="2.47852" width="21" height="21" rx="6" fill="url(#paint2_radial_31_39463)"/>
<path d="M17.8169 8.85352C17.8169 9.47484 17.3132 9.97852 16.6919 9.97852C16.0706 9.97852 15.5669 9.47484 15.5669 8.85352C15.5669 8.2322 16.0706 7.72852 16.6919 7.72852C17.3132 7.72852 17.8169 8.2322 17.8169 8.85352Z" fill="white"/>
<path fill-rule="evenodd" clip-rule="evenodd" d="M12.5669 16.7285C14.638 16.7285 16.3169 15.0496 16.3169 12.9785C16.3169 10.9074 14.638 9.22852 12.5669 9.22852C10.4958 9.22852 8.81689 10.9074 8.81689 12.9785C8.81689 15.0496 10.4958 16.7285 12.5669 16.7285ZM12.5669 15.2285C13.8095 15.2285 14.8169 14.2212 14.8169 12.9785C14.8169 11.7359 13.8095 10.7285 12.5669 10.7285C11.3243 10.7285 10.3169 11.7359 10.3169 12.9785C10.3169 14.2212 11.3243 15.2285 12.5669 15.2285Z" fill="white"/>
<path fill-rule="evenodd" clip-rule="evenodd" d="M5.06689 12.6785C5.06689 10.1583 5.06689 8.89816 5.55737 7.93556C5.9888 7.08883 6.67721 6.40042 7.52394 5.96899C8.48654 5.47852 9.74666 5.47852 12.2669 5.47852H12.8669C15.3871 5.47852 16.6472 5.47852 17.6099 5.96899C18.4566 6.40042 19.145 7.08883 19.5764 7.93556C20.0669 8.89816 20.0669 10.1583 20.0669 12.6785V13.2785C20.0669 15.7988 20.0669 17.0589 19.5764 18.0215C19.145 18.8682 18.4566 19.5566 17.6099 19.988C16.6472 20.4785 15.3871 20.4785 12.8669 20.4785H12.2669C9.74666 20.4785 8.48654 20.4785 7.52394 19.988C6.67721 19.5566 5.9888 18.8682 5.55737 18.0215C5.06689 17.0589 5.06689 15.7988 5.06689 13.2785V12.6785ZM12.2669 6.97852H12.8669C14.1518 6.97852 15.0252 6.97968 15.7003 7.03484C16.358 7.08857 16.6943 7.18596 16.9289 7.3055C17.4934 7.59312 17.9523 8.05206 18.2399 8.61654C18.3594 8.85114 18.4568 9.18745 18.5106 9.84507C18.5657 10.5202 18.5669 11.3936 18.5669 12.6785V13.2785C18.5669 14.5634 18.5657 15.4368 18.5106 16.112C18.4568 16.7696 18.3594 17.1059 18.2399 17.3405C17.9523 17.905 17.4934 18.3639 16.9289 18.6515C16.6943 18.7711 16.358 18.8685 15.7003 18.9222C15.0252 18.9774 14.1518 18.9785 12.8669 18.9785H12.2669C10.982 18.9785 10.1086 18.9774 9.43345 18.9222C8.77583 18.8685 8.43952 18.7711 8.20492 18.6515C7.64044 18.3639 7.18149 17.905 6.89387 17.3405C6.77434 17.1059 6.67695 16.7696 6.62322 16.112C6.56806 15.4368 6.56689 14.5634 6.56689 13.2785V12.6785C6.56689 11.3936 6.56806 10.5202 6.62322 9.84507C6.67695 9.18745 6.77434 8.85114 6.89387 8.61654C7.18149 8.05206 7.64044 7.59312 8.20492 7.3055C8.43952 7.18596 8.77583 7.08857 9.43345 7.03484C10.1086 6.97968 10.982 6.97852 12.2669 6.97852Z" fill="white"/>
<defs>
<radialGradient id="paint0_radial_31_39463" cx="0" cy="0" r="1" gradientUnits="userSpaceOnUse" gradientTransform="translate(9.56689 18.2285) rotate(-55.3758) scale(19.1397)">
<stop stop-color="#B13589"/>
<stop offset="0.79309" stop-color="#C62F94"/>
<stop offset="1" stop-color="#8A3AC8"/>
</radialGradient>
<radialGradient id="paint1_radial_31_39463" cx="0" cy="0" r="1" gradientUnits="userSpaceOnUse" gradientTransform="translate(8.81689 24.2285) rotate(-65.1363) scale(16.9457)">
<stop stop-color="#E0E8B7"/>
<stop offset="0.444662" stop-color="#FB8A2E"/>
<stop offset="0.71474" stop-color="#E2425C"/>
<stop offset="1" stop-color="#E2425C" stop-opacity="0"/>
</radialGradient>
<radialGradient id="paint2_radial_31_39463" cx="0" cy="0" r="1" gradientUnits="userSpaceOnUse" gradientTransform="translate(0.941896 3.22852) rotate(-8.1301) scale(29.1682 6.23877)">
<stop offset="0.156701" stop-color="#406ADC"/>
<stop offset="0.467799" stop-color="#6A45BE"/>
<stop offset="1" stop-color="#6A45BE" stop-opacity="0"/>
</radialGradient>
</defs>
</svg>
