<svg width="18" height="21" viewBox="0 0 18 21" fill="none" xmlns="http://www.w3.org/2000/svg">
<path fill-rule="evenodd" clip-rule="evenodd" d="M14.0754 6.37452V7.90786C15.7978 8.44547 17.0527 10.0047 17.0527 11.8669V16.8038C17.0527 19.1093 15.1414 20.9785 12.785 20.9785H4.32153C1.96409 20.9785 0.0527344 19.1093 0.0527344 16.8038V11.8669C0.0527344 10.0047 1.30868 8.44547 3.03002 7.90786V6.37452C3.04018 3.3933 5.5094 0.978516 8.53749 0.978516C11.6062 0.978516 14.0754 3.3933 14.0754 6.37452ZM8.55782 2.71756C10.6206 2.71756 12.2972 4.35723 12.2972 6.37452V7.69222H4.80826V6.35465C4.81842 4.34729 6.49505 2.71756 8.55782 2.71756ZM9.44186 15.4334C9.44186 15.9204 9.04556 16.3079 8.54765 16.3079C8.05991 16.3079 7.66361 15.9204 7.66361 15.4334V13.2273C7.66361 12.7504 8.05991 12.3628 8.54765 12.3628C9.04556 12.3628 9.44186 12.7504 9.44186 13.2273V15.4334Z" fill="white"/>
</svg>
