<svg width="25" height="25" viewBox="0 0 25 25" fill="none" xmlns="http://www.w3.org/2000/svg">
<path d="M15.5527 7.97839C15.5527 9.63525 14.2096 10.9784 12.5527 10.9784C10.8959 10.9784 9.55273 9.63525 9.55273 7.97839C9.55273 6.32154 10.8959 4.97839 12.5527 4.97839C14.2096 4.97839 15.5527 6.32154 15.5527 7.97839Z" fill="#009BD6" stroke="#009BD6" stroke-width="1.5"/>
<path d="M5.55273 17.5373V18.9784C5.55273 20.3591 6.67202 21.4784 8.05273 21.4784H17.0527C18.4334 21.4784 19.5527 20.3591 19.5527 18.9784V17.6486C19.5527 16.5148 18.8693 15.4907 17.7943 15.1302C16.2578 14.6149 14.309 13.9784 12.5527 13.9784C10.8327 13.9784 8.53859 14.5889 7.17792 15.0981C6.16922 15.4756 5.55273 16.4603 5.55273 17.5373Z" fill="#009BD6"/>
<path fill-rule="evenodd" clip-rule="evenodd" d="M12.5527 14.7284C10.9609 14.7284 8.76298 15.3057 7.44081 15.8005C6.75486 16.0573 6.30273 16.7401 6.30273 17.5373V18.9784C6.30273 19.9449 7.08624 20.7284 8.05273 20.7284H17.0527C18.0192 20.7284 18.8027 19.9449 18.8027 18.9784V17.6486C18.8027 16.8121 18.3021 16.0916 17.5558 15.8413C15.9978 15.3187 14.1658 14.7284 12.5527 14.7284ZM6.91503 14.3957C8.3142 13.872 10.7046 13.2284 12.5527 13.2284C14.4522 13.2284 16.5179 13.911 18.0328 14.4191C19.4364 14.8899 20.3027 16.2176 20.3027 17.6486V18.9784C20.3027 20.7733 18.8477 22.2284 17.0527 22.2284H8.05273C6.25781 22.2284 4.80273 20.7733 4.80273 18.9784V17.5373C4.80273 16.1805 5.58358 14.894 6.91503 14.3957Z" fill="#009BD6"/>
</svg>
