<svg width="22" height="22" viewBox="0 0 22 22" fill="none" xmlns="http://www.w3.org/2000/svg">
<g id="mail.svg">
<path id="Vector" d="M19.9203 17.8793H2.07539C1.69727 17.8793 1.38789 17.5699 1.38789 17.1875V4.77383C1.38789 4.3957 1.69727 4.08203 2.07539 4.08203H19.916C20.2941 4.08203 20.6035 4.39141 20.6035 4.77383V17.1832C20.6035 17.5699 20.2941 17.8793 19.9203 17.8793ZM20.6035 2.70703H1.3793C0.627344 2.70703 0.0214844 3.32148 0.0214844 4.06914V17.8879C0.0214844 18.6441 0.631641 19.25 1.3793 19.25H20.6207C21.3727 19.25 21.9785 18.6355 21.9785 17.8879V4.07344C21.9785 3.31719 21.3684 2.71133 20.6207 2.71133H20.6035V2.70703Z" fill="black"/>
<path id="Vector_2" d="M10.9957 11.9368C10.6777 11.9368 10.3684 11.8423 10.1105 11.6661L2.86172 6.83213C2.64258 6.69033 2.51367 6.44971 2.51367 6.179V6.16611C2.51367 5.73643 2.86602 5.37979 3.3 5.37979C3.45039 5.37979 3.60078 5.42705 3.72969 5.50869L10.3555 9.92588C10.5445 10.0548 10.768 10.1235 11.0043 10.1235C11.2363 10.1235 11.4555 10.0548 11.6531 9.93018L18.2746 5.50869C18.4035 5.42275 18.5539 5.37549 18.7043 5.37549C19.1383 5.37549 19.4906 5.72783 19.4906 6.16182V6.17471C19.4906 6.43682 19.3574 6.69033 19.1383 6.83213L11.8852 11.6704C11.623 11.8423 11.318 11.9368 10.9957 11.9368Z" fill="black"/>
</g>
</svg>
