<svg width="25" height="25" viewBox="0 0 25 25" fill="none" xmlns="http://www.w3.org/2000/svg">
<path d="M5.5529 10.8391C7.4693 15.0129 10.8793 18.3314 15.1189 20.1305L15.7984 20.4332C17.3533 21.126 19.181 20.5997 20.1293 19.1862L21.0174 17.8625C21.3062 17.4321 21.2183 16.8524 20.8149 16.527L17.8031 14.0972C17.3607 13.7404 16.7102 13.8235 16.3717 14.2801L15.44 15.5374C13.0492 14.3581 11.1081 12.417 9.9288 10.0262L11.1861 9.09447C11.6427 8.75605 11.7258 8.10554 11.369 7.66316L8.93908 4.65121C8.61374 4.24793 8.03423 4.15996 7.60387 4.44853L6.27103 5.34223C4.84868 6.29594 4.3253 8.13879 5.03403 9.69774L5.55212 10.8374L5.5529 10.8391Z" fill="#009BD6"/>
</svg>
