<svg width="19" height="14" viewBox="0 0 19 14" fill="none" xmlns="http://www.w3.org/2000/svg">
<path fill-rule="evenodd" clip-rule="evenodd" d="M4.35273 0.228516C2.39212 0.228516 0.802734 1.81791 0.802734 3.77852V10.1785C0.802734 12.1391 2.39212 13.7285 4.35273 13.7285H14.7527C16.7133 13.7285 18.3027 12.1391 18.3027 10.1785V3.77852C18.3027 1.8179 16.7133 0.228516 14.7527 0.228516H4.35273ZM6.00273 4.37852C5.67136 4.12999 5.20126 4.19714 4.95273 4.52852C4.70421 4.85989 4.77136 5.32999 5.10273 5.57852L8.50273 8.12852C9.12496 8.59518 9.98051 8.59518 10.6027 8.12852L14.0027 5.57852C14.3341 5.32999 14.4013 4.85989 14.1527 4.52852C13.9042 4.19714 13.4341 4.12999 13.1027 4.37852L9.70273 6.92852C9.61385 6.99518 9.49162 6.99518 9.40273 6.92852L6.00273 4.37852Z" fill="white"/>
</svg>
